<svg width="18" height="18" viewBox="0 0 18 18" fill="none" xmlns="http://www.w3.org/2000/svg">
<path d="M5.00027 13.0011H3.00027C2.46984 13.0011 1.96113 12.7904 1.58606 12.4153C1.21099 12.0403 1.00027 11.5315 1.00027 11.0011V3.00111C1.00027 2.47068 1.21099 1.96197 1.58606 1.5869C1.96113 1.21183 2.46984 1.00111 3.00027 1.00111H11.0003C11.5307 1.00111 12.0394 1.21183 12.4145 1.5869C12.7896 1.96197 13.0003 2.47068 13.0003 3.00111V5.00111M7.00027 17.0011H15.0003C15.5307 17.0011 16.0394 16.7904 16.4145 16.4153C16.7896 16.0403 17.0003 15.5315 17.0003 15.0011V7.00111C17.0003 6.47068 16.7896 5.96197 16.4145 5.5869C16.0394 5.21183 15.5307 5.00111 15.0003 5.00111H7.00027C6.46984 5.00111 5.96113 5.21183 5.58606 5.5869C5.21099 5.96197 5.00027 6.47068 5.00027 7.00111V15.0011C5.00027 15.5315 5.21099 16.0403 5.58606 16.4153C5.96113 16.7904 6.46984 17.0011 7.00027 17.0011Z" stroke="#868686" stroke-width="2" stroke-linecap="round" stroke-linejoin="round"/>
</svg>
