<svg width="18" height="24" viewBox="0 0 18 24" fill="none" xmlns="http://www.w3.org/2000/svg">
<path d="M14.994 2.28839C13.7734 1.19778 12.2786 0.460673 10.6703 0.156407C9.062 -0.147859 7.40118 -0.00776339 5.86658 0.561616C4.33198 1.131 2.98172 2.1081 1.96111 3.38776C0.940499 4.66743 0.288193 6.2012 0.0743972 7.82399C-0.117581 9.24698 0.0360671 10.6953 0.522339 12.0463C1.00861 13.3973 1.81319 14.6114 2.868 15.5856C3.52006 16.1576 4.0462 16.8588 4.41306 17.6448C4.77993 18.4308 4.97952 19.2844 4.9992 20.1516V20.3124C5.00015 21.2908 5.38922 22.2288 6.08103 22.9206C6.77283 23.6124 7.71084 24.0014 8.6892 24.0024H9.3096C10.288 24.0014 11.226 23.6124 11.9178 22.9206C12.6096 22.2288 12.9986 21.2908 12.9996 20.3124V19.7628C13.0146 18.9963 13.1951 18.2422 13.5285 17.5519C13.8619 16.8616 14.3406 16.2514 14.9316 15.7632C15.89 14.9237 16.6592 13.8901 17.1881 12.7309C17.7169 11.5717 17.9935 10.3134 17.9994 9.03926C18.0053 7.76513 17.7404 6.50429 17.2223 5.34026C16.7042 4.17622 15.9446 3.13676 14.994 2.28839ZM9.3096 22.002H8.688C8.24008 22.0014 7.81069 21.8231 7.49397 21.5064C7.17725 21.1897 6.99903 20.7603 6.9984 20.3124L6.99 20.0028H10.998V20.3124C10.9974 20.7603 10.8191 21.1897 10.5024 21.5064C10.1857 21.8231 9.75631 22.0014 9.3084 22.002H9.3096ZM13.6092 14.262C12.4708 15.2494 11.6485 16.5504 11.2452 18.0024H9.9996V10.818C10.5822 10.6118 11.087 10.2307 11.4448 9.72684C11.8026 9.22294 11.9961 8.62082 11.9988 8.00279C11.9862 7.74616 11.8754 7.50419 11.6893 7.327C11.5032 7.14982 11.2561 7.05099 10.9992 7.05099C10.7423 7.05099 10.4951 7.14982 10.3091 7.327C10.123 7.50419 10.0122 7.74616 9.9996 8.00279C9.9996 8.26806 9.89422 8.52247 9.70665 8.71004C9.51907 8.89762 9.26467 9.00299 8.9994 9.00299C8.73413 9.00299 8.47972 8.89762 8.29215 8.71004C8.10458 8.52247 7.9992 8.26806 7.9992 8.00279C7.9992 7.73768 7.89388 7.48343 7.70642 7.29597C7.51896 7.10851 7.26471 7.00319 6.9996 7.00319C6.73449 7.00319 6.48023 7.10851 6.29277 7.29597C6.10531 7.48343 6 7.73768 6 8.00279C6.00267 8.62082 6.19615 9.22294 6.55399 9.72684C6.91183 10.2307 7.41657 10.6118 7.9992 10.818V18.0024H6.678C6.22695 16.5117 5.38108 15.1707 4.23 14.1216C3.20156 13.1631 2.48561 11.917 2.17536 10.5458C1.86512 9.17462 1.97498 7.74176 2.49063 6.43387C3.00627 5.12598 3.90381 4.00367 5.06634 3.21312C6.22888 2.42256 7.60253 2.00039 9.0084 2.00159C10.7261 1.99656 12.3844 2.63043 13.6608 3.77999C14.4002 4.43975 14.991 5.24908 15.394 6.15437C15.797 7.05967 16.0031 8.04027 15.9986 9.03121C15.994 10.0222 15.779 11.0008 15.3677 11.9024C14.9564 12.804 14.3582 13.6078 13.6128 14.2608H13.6092V14.262Z" fill="#868686"/>
</svg>
